<svg xmlns="http://www.w3.org/2000/svg" xmlns:svg="http://www.w3.org/2000/svg" id="svg2" width="1052.362" height="744.094" version="1.1"><metadata id="metadata7"/><g id="layer1" transform="translate(0,-308.2677)"><g id="g3860" transform="matrix(1.0022638,0,0,1.0022638,-0.52187621,-1.6990684)"><g style="fill:#aaa;fill-opacity:1" id="g3856" transform="matrix(0.57763975,0,0,0.57763975,276.66355,34.2134)"><path id="path3844" d="m -340,622.36218 c 70,0 70,0 70,0 l 0,185 -35,-50 -35,50 z" style="fill:#aaa;fill-opacity:1;stroke:none"/><path id="path3846" d="m -340,622.36218 35,-30 80,0 -45,30 0,0 0,0" style="fill:#aaa;fill-opacity:1;stroke:none"/></g><g id="g3805" transform="matrix(0.59660545,0,0,0.59660545,-20.0073,16.51656)"><text style="font-size:56px;font-style:oblique;font-variant:normal;font-weight:400;font-stretch:normal;line-height:125%;letter-spacing:0;word-spacing:0;fill:#000;fill-opacity:1;stroke:none;font-family:Open Sans;-inkscape-font-specification:Open Sans Bold Oblique" id="text2985" x="147.482" y="289.526" transform="translate(0,308.2677)" xml:space="preserve"><tspan id="tspan2987" x="147.482" y="289.526" style="font-size:72px;font-style:oblique;font-variant:normal;font-weight:400;font-stretch:normal;fill:#637a91;fill-opacity:1;font-family:Roboto;-inkscape-font-specification:Roboto">Clear</tspan><tspan id="tspan3793" x="147.482" y="448.124" style="font-size:144px;font-style:normal;font-weight:700;fill:#ff8080;-inkscape-font-specification:Open Sans Bold"> IBPS</tspan></text><rect style="fill:#f55;fill-opacity:1;stroke:none" id="rect3797" width="438.406" height="4.391" x="109.096" y="619.842"/><rect id="rect3799" width="438.406" height="4.391" x="272.741" y="771.365" style="fill:#637a91;fill-opacity:1;stroke:none"/></g></g></g></svg>