<svg xmlns="http://www.w3.org/2000/svg" xmlns:xlink="http://www.w3.org/1999/xlink" id="Capa_1" x="0" y="0" version="1.1" viewBox="0 0 512 512" xml:space="preserve" style="enable-background:new 0 0 512 512"><g><g><rect style="fill:#fff" width="256" height="352" x="128" y="80"/></g><g><rect style="fill:#5c546a" width="88" height="32" x="200" y="24"/></g><g><rect style="fill:#5c546a" width="64" height="64" x="224" y="440"/></g><g><path style="fill:#8b8996" d="M360,0H152c-22.055,0-40,17.945-40,40v432c0,22.055,17.945,40,40,40h208c22.055,0,40-17.945,40-40 V40C400,17.945,382.055,0,360,0z M240,32h32c4.422,0,8,3.578,8,8s-3.578,8-8,8h-32c-4.422,0-8-3.578-8-8S235.578,32,240,32z M210.32,34.32c2.875-2.883,8.398-2.961,11.359,0c1.438,1.516,2.32,3.516,2.32,5.68c0,2.156-0.883,4.156-2.32,5.68 C220.156,47.117,218.156,48,216,48c-2.164,0-4.164-0.883-5.68-2.32C208.875,44.156,208,42.156,208,40 C208,37.836,208.875,35.836,210.32,34.32z M256,496c-13.23,0-24-10.77-24-24c0-13.23,10.77-24,24-24s24,10.77,24,24 C280,485.23,269.23,496,256,496z M384,432H128V80h256V432z"/></g><g><path style="fill:#00e68c" d="M352,152H160c-4.418,0-8-3.582-8-8v-32c0-4.418,3.582-8,8-8h192c4.418,0,8,3.582,8,8v32 C360,148.418,356.418,152,352,152z"/></g><g><g><path style="fill:#e9001e" d="M352,200H160c-4.422,0-8-3.578-8-8s3.578-8,8-8h192c4.422,0,8,3.578,8,8S356.422,200,352,200z"/></g></g><g><g><path style="fill:#ff4f19" d="M336,232H176c-4.422,0-8-3.578-8-8s3.578-8,8-8h160c4.422,0,8,3.578,8,8S340.422,232,336,232z"/></g></g><g><g><path style="fill:#b9bbc1" d="M352,280H208c-4.422,0-8-3.578-8-8s3.578-8,8-8h144c4.422,0,8,3.578,8,8S356.422,280,352,280z"/></g></g><g><circle style="fill:#ffd200" cx="168" cy="272" r="16"/></g><g><g><path style="fill:#b9bbc1" d="M352,336H208c-4.422,0-8-3.578-8-8s3.578-8,8-8h144c4.422,0,8,3.578,8,8S356.422,336,352,336z"/></g></g><g><circle style="fill:#ffd200" cx="168" cy="328" r="16"/></g><g><g><path style="fill:#b9bbc1" d="M352,392H208c-4.422,0-8-3.578-8-8s3.578-8,8-8h144c4.422,0,8,3.578,8,8S356.422,392,352,392z"/></g></g><g><circle style="fill:#ffd200" cx="168" cy="384" r="16"/></g></g></svg>