<svg xmlns="http://www.w3.org/2000/svg" xmlns:xlink="http://www.w3.org/1999/xlink" id="Layer_1" x="0" y="0" version="1.1" viewBox="0 0 512 512" xml:space="preserve" style="enable-background:new 0 0 512 512"><path style="fill:#5b5d6e" d="M486.171,423.728c7.8,0,14.868-5.064,16.914-12.591c8.046-29.598,10.692-60.291,7.752-91.551	C499.197,195.849,396.766,96.633,272.573,88.801c-71.552-4.509-139.698,19.927-191.771,68.819C29.452,205.836,0,273.87,0,344.28	c0,22.532,3.07,44.684,8.885,66.187c2.104,7.783,9.079,13.261,17.141,13.261H486.171z"/><path style="fill:#707487" d="M370.758,344.28c0-63.38-51.38-114.758-114.758-114.758s-114.758,51.38-114.758,114.758	c0,30.865,12.247,58.824,32.068,79.448h165.38C358.511,403.102,370.758,375.143,370.758,344.28z"/><circle style="fill:#5b5d6e" cx="255.999" cy="344.275" r="52.965"/><path style="fill:#ff6464" d="M368.498,244.247c3.136-3.49,2.99-8.823-0.327-12.14c-3.316-3.316-8.65-3.463-12.14-0.327	L233.337,341.991c-1.804,1.621-2.862,3.911-2.926,6.334c-0.067,2.42,0.868,4.764,2.582,6.477l-18.546,18.546	c-3.447,3.447-3.447,9.037,0,12.484c3.447,3.447,9.037,3.447,12.484,0l18.546-18.546c1.713,1.713,4.056,2.648,6.477,2.582	c2.423-0.064,4.712-1.121,6.334-2.926L368.498,244.247z"/><circle style="fill:#464655" cx="255.999" cy="344.275" r="35.31"/><g><path style="fill:#e4eaf6" d="M70.621,335.452H44.138v17.655h26.483c4.875,0,8.828-3.953,8.828-8.828 S75.496,335.452,70.621,335.452z"/><path style="fill:#e4eaf6" d="M441.378,335.452c-4.875,0-8.828,3.953-8.828,8.828s3.953,8.828,8.828,8.828h26.483v-17.655H441.378 z"/><path style="fill:#e4eaf6" d="M247.172,132.418v26.483c0,4.875,3.953,8.828,8.828,8.828s8.828-3.953,8.828-8.828v-26.483H247.172z"/><path style="fill:#e4eaf6" d="M130.901,206.698l-18.729-18.729L99.69,200.452l18.729,18.729c1.725,1.725,3.982,2.586,6.241,2.586 s4.518-0.862,6.241-2.586C134.349,215.733,134.349,210.146,130.901,206.698z"/><path style="fill:#e4eaf6" d="M400.9,186.896l-18.729,18.729c-3.448,3.448-3.448,9.035,0,12.483 c1.725,1.725,3.982,2.586,6.241,2.586c2.259,0,4.518-0.862,6.241-2.586l18.729-18.729L400.9,186.896z"/></g><g><path style="fill:#959cb3" d="M456.512,251.672l-24.47,10.134c-4.504,1.866-6.643,7.03-4.776,11.534 c1.405,3.396,4.694,5.452,8.16,5.452c1.125,0,2.268-0.22,3.375-0.676l24.47-10.134L456.512,251.672z"/><path style="fill:#959cb3" d="M189.836,161.479l-10.134-24.47l-16.31,6.759l10.134,24.47c1.405,3.396,4.694,5.452,8.16,5.452 c1.126,0,2.268-0.22,3.375-0.676C189.564,171.146,191.702,165.983,189.836,161.479z"/><path style="fill:#959cb3" d="M79.957,261.806l-24.47-10.134l-6.759,16.31l24.47,10.134c1.108,0.457,2.25,0.676,3.375,0.676 c3.466,0,6.754-2.056,8.16-5.452C86.598,268.836,84.461,263.672,79.957,261.806z"/><path style="fill:#959cb3" d="M332.297,137.009l-10.134,24.47c-1.866,4.504,0.271,9.668,4.776,11.534 c1.108,0.457,2.25,0.676,3.375,0.676c3.466,0,6.754-2.056,8.16-5.452l10.134-24.47L332.297,137.009z"/></g><path style="fill:#707487" d="M472.223,397.245c-0.586,0-1.185-0.056-1.78-0.181c-4.776-0.979-7.853-5.642-6.874-10.418	c4.203-20.517,5.323-41.685,3.324-62.926c-9.625-102.331-94.358-184.388-197.099-190.866	c-58.879-3.715-115.982,16.762-158.779,56.943c-42.501,39.909-66.877,96.215-66.877,154.482c0,14.044,1.483,28.289,4.405,42.34	c0.991,4.771-2.069,9.449-6.845,10.44c-4.789,0.97-9.452-2.073-10.44-6.845c-3.168-15.229-4.776-30.686-4.776-45.935	c0-63.12,26.405-124.12,72.443-167.353c46.358-43.517,108.276-65.728,171.978-61.694c111.323,7.021,203.138,95.939,213.564,206.831	c2.164,22.978,0.948,45.901-3.608,68.125C480.008,394.37,476.327,397.245,472.223,397.245z"/></svg>